
<svg id="visual" viewBox="0 0 900 600" width="900" height="600" xmlns="http://www.w3.org/2000/svg" xmlns:xlink="http://www.w3.org/1999/xlink" version="1.1"><rect x="0" y="0" width="900" height="600" fill="#001220"></rect><path d="M0 469L21.5 459C43 449 86 429 128.8 426.5C171.7 424 214.3 439 257.2 440.3C300 441.7 343 429.3 385.8 424.2C428.7 419 471.3 421 514.2 422.5C557 424 600 425 642.8 422.7C685.7 420.3 728.3 414.7 771.2 412C814 409.3 857 409.7 878.5 409.8L900 410L900 601L878.5 601C857 601 814 601 771.2 601C728.3 601 685.7 601 642.8 601C600 601 557 601 514.2 601C471.3 601 428.7 601 385.8 601C343 601 300 601 257.2 601C214.3 601 171.7 601 128.8 601C86 601 43 601 21.5 601L0 601Z" fill="#fa7268"></path><path d="M0 444L21.5 446.2C43 448.3 86 452.7 128.8 461.7C171.7 470.7 214.3 484.3 257.2 483.7C300 483 343 468 385.8 468.8C428.7 469.7 471.3 486.3 514.2 493.3C557 500.3 600 497.7 642.8 490.3C685.7 483 728.3 471 771.2 462.2C814 453.3 857 447.7 878.5 444.8L900 442L900 601L878.5 601C857 601 814 601 771.2 601C728.3 601 685.7 601 642.8 601C600 601 557 601 514.2 601C471.3 601 428.7 601 385.8 601C343 601 300 601 257.2 601C214.3 601 171.7 601 128.8 601C86 601 43 601 21.5 601L0 601Z" fill="#ef5f67"></path><path d="M0 478L21.5 483.7C43 489.3 86 500.7 128.8 501.7C171.7 502.7 214.3 493.3 257.2 493.8C300 494.3 343 504.7 385.8 505.8C428.7 507 471.3 499 514.2 499.3C557 499.7 600 508.3 642.8 507.8C685.7 507.3 728.3 497.7 771.2 492C814 486.3 857 484.7 878.5 483.8L900 483L900 601L878.5 601C857 601 814 601 771.2 601C728.3 601 685.7 601 642.8 601C600 601 557 601 514.2 601C471.3 601 428.7 601 385.8 601C343 601 300 601 257.2 601C214.3 601 171.7 601 128.8 601C86 601 43 601 21.5 601L0 601Z" fill="#e34c67"></path><path d="M0 523L21.5 523.2C43 523.3 86 523.7 128.8 527.2C171.7 530.7 214.3 537.3 257.2 541.2C300 545 343 546 385.8 539.5C428.7 533 471.3 519 514.2 520.2C557 521.3 600 537.7 642.8 539C685.7 540.3 728.3 526.7 771.2 524.5C814 522.3 857 531.7 878.5 536.3L900 541L900 601L878.5 601C857 601 814 601 771.2 601C728.3 601 685.7 601 642.8 601C600 601 557 601 514.2 601C471.3 601 428.7 601 385.8 601C343 601 300 601 257.2 601C214.3 601 171.7 601 128.8 601C86 601 43 601 21.5 601L0 601Z" fill="#d53867"></path><path d="M0 564L21.5 566C43 568 86 572 128.8 574.3C171.7 576.7 214.3 577.3 257.2 575.8C300 574.3 343 570.7 385.8 568.5C428.7 566.3 471.3 565.7 514.2 561.5C557 557.3 600 549.7 642.8 551.2C685.7 552.7 728.3 563.3 771.2 566C814 568.7 857 563.3 878.5 560.7L900 558L900 601L878.5 601C857 601 814 601 771.2 601C728.3 601 685.7 601 642.8 601C600 601 557 601 514.2 601C471.3 601 428.7 601 385.8 601C343 601 300 601 257.2 601C214.3 601 171.7 601 128.8 601C86 601 43 601 21.5 601L0 601Z" fill="#c62368"></path></svg>