<svg width="300" height="319" viewBox="0 0 300 319" fill="none" xmlns="http://www.w3.org/2000/svg">
<path d="M300 300.609C300 300.901 299.854 301.138 299.674 301.138H0V300.081H299.674C299.854 300.081 300 300.318 300 300.609Z" fill="#E6E6E6"/>
<path d="M228.529 227.225C231.512 227.225 233.929 224.689 233.929 221.561C233.929 218.433 231.512 215.897 228.529 215.897C225.547 215.897 223.129 218.433 223.129 221.561C223.129 224.689 225.547 227.225 228.529 227.225Z" fill="#3F3D56"/>
<path d="M269.33 276.314C272.312 276.314 274.73 273.778 274.73 270.65C274.73 267.522 272.312 264.986 269.33 264.986C266.347 264.986 263.93 267.522 263.93 270.65C263.93 273.778 266.347 276.314 269.33 276.314Z" fill="#3F3D56"/>
<path d="M213.829 198.589L260.629 262.154C260.629 262.154 270.229 281.034 285.229 275.37C300.229 269.706 277.429 252.713 277.429 252.713L231.829 189.149C231.829 189.149 225.829 172.068 213.829 175.574C201.829 179.08 213.829 198.589 213.829 198.589Z" fill="#4085FF"/>
<path d="M292.938 243.248L285.031 247.638L265.125 217.738L276.795 211.259L292.938 243.248Z" fill="#A0616A"/>
<path d="M265.754 258.102C265.727 258.673 266.306 260.149 266.561 260.655C267.345 262.209 269.183 262.802 270.665 261.979L295.15 248.384C296.161 247.822 296.547 246.507 296.012 245.447L295.472 244.378C295.472 244.378 295.062 240.491 290.569 237.915C290.569 237.915 289.035 242.738 281.952 240.451L279.276 238.614L273.217 251.688L268.095 255.438C266.974 256.258 265.821 256.67 265.754 258.102L265.754 258.102Z" fill="#2F2E41"/>
<path d="M253.938 189.754L246.031 194.143L226.125 164.243L237.795 157.764L253.938 189.754Z" fill="#A0616A"/>
<path d="M226.754 204.607C226.727 205.179 227.306 206.654 227.561 207.16C228.345 208.715 230.183 209.308 231.665 208.485L256.15 194.889C257.162 194.328 257.547 193.013 257.012 191.952L256.472 190.883C256.472 190.883 256.062 186.997 251.569 184.42C251.569 184.42 250.035 189.243 242.952 186.957L240.276 185.12L234.217 198.193L229.095 201.943C227.974 202.764 226.821 203.175 226.754 204.607L226.754 204.607Z" fill="#2F2E41"/>
<path d="M282.229 126.214L252.829 175.933L283.429 221.246L271.429 227.54C271.429 227.54 232.429 184.114 231.229 178.45C230.029 172.786 243.229 133.137 243.229 133.137H218.168L242.029 164.605L230.629 172.157L189.829 130.62C189.829 130.62 185.029 122.255 189.829 119.2C194.629 116.145 237.671 96.0058 237.671 96.0058L282.229 126.214Z" fill="#2F2E41"/>
<path d="M214.73 214.638C217.712 214.638 220.13 212.102 220.13 208.974C220.13 205.845 217.712 203.31 214.73 203.31C211.747 203.31 209.33 205.845 209.33 208.974C209.33 212.102 211.747 214.638 214.73 214.638Z" fill="#3F3D56"/>
<path d="M255.23 269.077C258.212 269.077 260.63 266.541 260.63 263.412C260.63 260.284 258.212 257.748 255.23 257.748C252.247 257.748 249.83 260.284 249.83 263.412C249.83 266.541 252.247 269.077 255.23 269.077Z" fill="#3F3D56"/>
<path d="M210.529 51.6368L219.529 34.0151C219.529 34.0151 247.096 39.6792 255.813 51.6368C264.529 63.5944 280.129 95.0618 280.129 95.0618C280.129 95.0618 292.129 120.236 281.329 134.081C270.529 147.927 256.729 120.236 256.729 120.236L236.929 96.9499L234.529 96.3205L210.529 51.6368Z" fill="#4085FF"/>
<path d="M196.837 125.64C197.604 123.687 198.807 121.955 200.343 120.59L213.34 84.1048L223.396 88.1681L208.574 124.286C208.692 126.394 208.327 128.501 207.509 130.431C205.526 135.29 201.53 138.154 198.582 136.831C195.635 135.508 194.854 130.497 196.837 125.64V125.64V125.64Z" fill="#A0616A"/>
<path d="M217.429 52.5807L241.129 60.4475L221.629 96.0057L206.629 94.747L217.429 52.5807Z" fill="#4085FF"/>
<path d="M162.052 81.8846C163.942 81.1549 165.971 80.9107 167.969 81.1723L202.369 66.5082L206.325 77.0228L170.947 90.0297C169.548 91.5476 167.822 92.6919 165.914 93.3668C161.162 95.1248 156.447 93.9789 155.38 90.8076C154.314 87.6364 157.301 83.6412 162.052 81.8846V81.8845L162.052 81.8846Z" fill="#A0616A"/>
<path d="M218.929 44.7139L236.352 65.2046L199.629 80.9644L190.358 68.5318L218.929 44.7139Z" fill="#4085FF"/>
<path d="M77.9335 179.002C77.953 179.005 77.9821 179.01 78.0175 179.017C78.71 179.137 82.8969 179.814 87.1181 178.128C88.9064 177.413 88.2963 177.235 92.279 174.751C96.9483 171.839 98.1466 171.859 98.4943 170.501C99.1886 167.789 95.4812 163.526 93.0273 163.807C92.3813 163.881 91.6894 164.285 90.6132 164.011C90.3768 163.951 89.3418 163.687 88.8373 162.789C88.3871 161.987 88.7684 161.409 88.5873 160.751C88.1122 159.026 84.1514 158.164 80.6789 158.773C78.6816 159.123 77.1282 160.079 74.1028 161.975C68.837 165.277 66.2041 166.927 65.6124 169.456C65.0515 171.853 66.3977 172.886 65.4186 175.452C64.507 177.841 63.0592 177.682 62.5609 179.614C61.7591 182.724 64.735 186.138 65.9746 187.56C67.3337 189.119 68.6335 189.974 70.3592 191.11C72.5251 192.536 73.608 193.249 74.9101 193.176C77.2707 193.045 84.2853 193.493 84.3768 191.444C84.4111 190.676 92.9187 191.304 88.7295 183.037C88.2157 182.023 78.1498 183.106 78.017 182.523" fill="#2F2E41"/>
<path d="M79.8486 188.105C87.1937 188.105 93.148 181.86 93.148 174.156C93.148 166.451 87.1937 160.206 79.8486 160.206C72.5036 160.206 66.5493 166.451 66.5493 174.156C66.5493 181.86 72.5036 188.105 79.8486 188.105Z" fill="#FFB6B6"/>
<path d="M33.1615 286.394C33.1615 286.394 14.4997 280.153 13.6883 283.274C12.877 286.394 26.9409 291.501 38.0298 291.501C49.1187 291.501 118.897 290.933 118.897 290.933C118.897 290.933 138.371 284.408 132.691 283.274C127.011 282.139 33.1615 286.394 33.1615 286.394H33.1615Z" fill="#4085FF"/>
<path d="M41.816 300.579C44.654 300.579 46.9547 298.165 46.9547 295.188C46.9547 292.212 44.654 289.798 41.816 289.798C38.9779 289.798 36.6772 292.212 36.6772 295.188C36.6772 298.165 38.9779 300.579 41.816 300.579Z" fill="#3F3D56"/>
<path d="M108.62 300.579C111.458 300.579 113.758 298.165 113.758 295.188C113.758 292.212 111.458 289.798 108.62 289.798C105.782 289.798 103.481 292.212 103.481 295.188C103.481 298.165 105.782 300.579 108.62 300.579Z" fill="#3F3D56"/>
<path d="M87.524 191.642L71.9292 190.093L66.428 195.046H66.428C61.4209 196.994 58.0594 201.957 57.9534 207.557L57.0972 252.777L97.1253 255.33C97.1253 255.33 92.7979 244.834 95.773 242.848C98.7481 240.862 100.567 213.628 98.0719 209.231C95.5771 204.833 94.1502 199.727 94.1502 199.727L87.524 191.642Z" fill="#E6E6E6"/>
<path d="M58.1789 251.359L53.3106 264.125C53.3106 264.125 45.7377 281.997 53.0401 287.103C60.3426 292.21 102.534 288.238 102.534 288.238C102.534 288.238 106.591 284.55 108.485 276.891C110.378 269.231 98.4775 257.032 98.4775 257.032L97.1252 255.33L58.1789 251.359Z" fill="#2F2E41"/>
<path d="M110.539 284.558C111.336 288.966 114.15 292.109 116.824 291.576C119.499 291.044 121.021 287.04 120.223 282.63C119.928 280.864 119.234 279.197 118.198 277.771L114.598 259.137L106.298 261.095L110.728 279.257C110.262 280.983 110.198 282.8 110.539 284.558Z" fill="#FFB6B6"/>
<path d="M86.9419 220.504C86.9419 220.504 89.5585 223.707 94.4089 224.423C99.2593 225.139 106.839 272.219 106.839 272.219L117.247 267.713C117.247 267.713 111.711 224.953 110.168 222.068C108.625 219.182 92.3291 197.645 92.3291 197.645L86.9419 220.504H86.9419Z" fill="#E6E6E6"/>
<path d="M45.3196 285.817C44.5231 290.225 41.7089 293.367 39.0343 292.835C36.3597 292.303 34.8379 288.298 35.6353 283.889C35.9308 282.122 36.6252 280.456 37.6605 279.029L41.2604 260.396L49.5609 262.354L45.1308 280.516C45.5964 282.242 45.6612 284.059 45.3196 285.817Z" fill="#FFB6B6"/>
<path d="M68.9165 221.763C68.9165 221.763 66.2999 224.965 61.4495 225.682C56.5991 226.398 49.0192 273.478 49.0192 273.478L38.6118 268.972C38.6118 268.972 44.1474 226.212 45.6905 223.326C47.2336 220.441 63.5293 198.904 63.5293 198.904L68.9165 221.763H68.9165Z" fill="#E6E6E6"/>
<path d="M90.2323 276.445L82.2771 269.171L63.5449 296.856L68.9352 301.786L90.2323 276.445Z" fill="#FFB6B6"/>
<path d="M103.346 284.266C103.346 284.266 117.68 259.302 118.221 248.522C118.762 237.741 109.837 236.323 106.591 238.592C103.346 240.862 68.3291 282.607 68.3291 282.607L79.276 290.319L102.961 270.534L103.346 284.266Z" fill="#2F2E41"/>
<path d="M62.958 277.861L70.6267 270.256L90.4092 297.126L85.2131 302.279L62.958 277.861Z" fill="#FFB6B6"/>
<path d="M50.6059 284.266C50.6059 284.266 36.2715 259.302 35.7306 248.522C35.1897 237.741 44.1149 236.323 47.3604 238.592C50.6059 240.862 83.0367 284.266 83.0367 284.266L74.6757 290.319L50.9903 270.534L50.6059 284.266Z" fill="#2F2E41"/>
<path d="M65.6167 292.068C65.6167 292.068 55.6097 297.458 56.1506 298.876C56.6915 300.295 57.2325 305.685 57.2325 305.685C57.2325 305.685 49.6596 311.075 56.4211 314.763C63.1826 318.451 68.3213 318.167 69.1327 315.898C69.9441 313.628 70.2146 307.103 70.2146 307.103L73.7305 297.742L65.6167 292.068L65.6167 292.068Z" fill="#2F2E41"/>
<path d="M88.065 292.919C88.065 292.919 98.072 298.309 97.5311 299.727C96.9902 301.146 96.4493 306.536 96.4493 306.536C96.4493 306.536 104.022 311.926 97.2606 315.614C90.4991 319.302 85.3604 319.018 84.549 316.749C83.7376 314.479 83.4672 307.954 83.4672 307.954L79.9512 298.593L88.065 292.919L88.065 292.919Z" fill="#2F2E41"/>
<path d="M75.5648 175.058C75.5843 175.062 75.6135 175.067 75.6489 175.073C76.3414 175.193 80.5283 175.871 84.7495 174.184C86.5377 173.47 85.9277 173.292 89.9104 170.808C94.5797 167.895 95.778 167.916 96.1257 166.558C96.82 163.846 93.1126 159.583 90.6587 159.864C90.0126 159.938 89.3208 160.342 88.2446 160.068C88.0082 160.008 86.9732 159.744 86.4686 158.845C86.0185 158.044 86.3997 157.466 86.2187 156.808C85.7436 155.082 81.7828 154.221 78.3102 154.83C76.313 155.18 74.7595 156.135 71.7341 158.032C66.4684 161.333 63.8355 162.984 63.2437 165.513C62.6829 167.91 64.029 168.943 63.05 171.509C62.1384 173.898 60.6905 173.738 60.1923 175.671C59.3905 178.781 62.3663 182.194 63.606 183.616C64.9651 185.175 66.2649 186.031 67.9905 187.167C70.1564 188.593 71.2394 189.306 72.5414 189.233C74.902 189.101 77.25 186.858 77.3415 184.808C77.3758 184.041 77.0704 183.81 76.3145 181.17C75.9996 180.071 75.7812 179.163 75.6483 178.58" fill="#2F2E41"/>
<path d="M211.729 15.8507C215.752 15.8507 219.012 12.4306 219.012 8.21177C219.012 3.99293 215.752 0.572876 211.729 0.572876C207.707 0.572876 204.447 3.99293 204.447 8.21177C204.447 12.4306 207.707 15.8507 211.729 15.8507Z" fill="#2F2E41"/>
<path d="M200.543 42.4554C209.302 42.4554 216.403 35.0073 216.403 25.8197C216.403 16.632 209.302 9.18396 200.543 9.18396C191.784 9.18396 184.683 16.632 184.683 25.8197C184.683 35.0073 191.784 42.4554 200.543 42.4554Z" fill="#A0616A"/>
<path d="M211.918 40.5876C213.818 40.7657 216.92 35.6674 216.781 30.73C216.692 27.5536 219.321 26.9291 219.517 22.8328C219.631 20.4459 216.135 19.7017 215.895 17.7873C215.46 14.3186 213.326 11.9844 213.06 11.7007C210.761 9.2513 209.138 10.0476 206.434 7.2088C204.806 5.49972 205.223 5.0315 204.127 4.27343C200.963 2.0856 195.277 4.45679 191.877 7.65087C190.701 8.75615 186.315 7.54814 184.4 10.6693C182.143 14.3467 182.667 21.8462 183.635 22.8359C184.223 23.4372 185.565 21.9682 189.205 21.0253C192.575 20.1524 189.396 24.4692 193.291 23.7448C197.898 22.8882 198.8 21.4182 200.525 22.2999C202.349 23.2319 203.774 26.1178 203.36 28.3865C203.155 29.5122 202.56 30.14 202.895 30.7125C203.508 31.7576 204.211 30.7326 204.996 31.7815C205.91 33.0014 203.639 36.1312 204.067 36.4334C204.153 36.4943 204.414 36.4864 206.865 34.0135C207.844 33.026 208.131 32.4196 208.323 32.5127C208.633 32.6634 210.665 34.649 209.889 36.217C208.681 38.6572 210.227 38.7332 209.889 40.376C209.54 42.0707 210.71 40.4744 211.918 40.5876V40.5876Z" fill="#2F2E41"/>
</svg>
