
<svg id="visual" viewBox="0 0 900 600" width="900" height="600" xmlns="http://www.w3.org/2000/svg" xmlns:xlink="http://www.w3.org/1999/xlink" version="1.1"><rect x="0" y="0" width="900" height="600" fill="#001220"></rect><path d="M0 365L113 347L225 338L338 330L450 365L563 373L675 335L788 379L900 366L900 601L788 601L675 601L563 601L450 601L338 601L225 601L113 601L0 601Z" fill="#ff82d3"></path><path d="M0 392L113 377L225 367L338 404L450 393L563 361L675 362L788 389L900 386L900 601L788 601L675 601L563 601L450 601L338 601L225 601L113 601L0 601Z" fill="#e370ca"></path><path d="M0 392L113 396L225 413L338 399L450 392L563 432L675 421L788 437L900 392L900 601L788 601L675 601L563 601L450 601L338 601L225 601L113 601L0 601Z" fill="#c660c0"></path><path d="M0 443L113 469L225 436L338 425L450 423L563 463L675 441L788 456L900 461L900 601L788 601L675 601L563 601L450 601L338 601L225 601L113 601L0 601Z" fill="#a851b6"></path><path d="M0 474L113 493L225 459L338 454L450 481L563 482L675 460L788 488L900 463L900 601L788 601L675 601L563 601L450 601L338 601L225 601L113 601L0 601Z" fill="#8943ac"></path><path d="M0 486L113 502L225 493L338 500L450 492L563 492L675 500L788 486L900 525L900 601L788 601L675 601L563 601L450 601L338 601L225 601L113 601L0 601Z" fill="#6937a1"></path><path d="M0 543L113 535L225 546L338 544L450 517L563 538L675 533L788 542L900 537L900 601L788 601L675 601L563 601L450 601L338 601L225 601L113 601L0 601Z" fill="#442b95"></path><path d="M0 562L113 555L225 565L338 580L450 576L563 563L675 581L788 564L900 566L900 601L788 601L675 601L563 601L450 601L338 601L225 601L113 601L0 601Z" fill="#022289"></path></svg>