<svg width="445" height="131" viewBox="0 0 445 131" fill="none" xmlns="http://www.w3.org/2000/svg">
<path d="M0.0733442 65.3857C0.0733442 52.5357 0.193347 39.6957 0.0133466 26.8457C-0.0566534 21.3257 2.12335 17.0657 6.09335 13.5857C13.7933 6.82567 23.3033 4.27568 33.0133 2.13568C44.1833 -0.324324 55.5333 -0.264318 66.7833 0.375682C80.0733 1.13568 93.2034 3.38567 104.613 11.1157C110.803 15.3157 114.103 20.8257 114.013 28.7757C113.713 53.0357 113.693 77.3057 114.063 101.566C114.203 110.496 110.503 116.806 103.103 120.606C96.8333 123.826 90.0933 126.696 83.2333 128.066C61.8733 132.326 40.5033 132.266 19.6233 125.036C13.4433 122.896 7.48334 119.996 3.66334 114.506C1.77334 111.786 0.313338 108.166 0.223338 104.906C-0.156662 91.7457 0.0633497 78.5557 0.0633497 65.3857C0.0633497 65.3857 0.0633442 65.3857 0.0733442 65.3857ZM50.0633 8.07568C41.0033 8.74568 27.7633 11.3557 19.5733 15.1057C16.9033 16.3257 14.2933 17.8757 12.0533 19.7557C7.09334 23.9157 6.82334 29.1457 11.8033 33.1857C15.2233 35.9557 19.2933 38.3157 23.4533 39.7157C41.6433 45.8457 60.2734 46.1857 79.0234 42.7957C86.9434 41.3657 94.7333 39.3157 101.183 34.1457C107.223 29.2957 107.003 23.5357 100.803 18.8557C94.3934 14.0157 86.8433 11.7757 79.1433 10.6757C69.5233 9.30568 59.7633 8.89568 50.0633 8.07568ZM8.39335 90.1857C8.39335 94.4857 8.64334 98.2957 8.33334 102.066C7.93334 106.996 10.0833 110.626 14.1033 112.666C19.3433 115.326 24.8033 117.886 30.4633 119.296C47.1033 123.416 63.9633 123.196 80.7333 120.036C87.7433 118.716 94.7033 116.706 100.423 112.176C102.463 110.556 104.793 108.106 105.123 105.776C105.843 100.806 105.343 95.6557 105.343 90.2657C90.3733 100.376 73.8934 102.236 56.8934 102.236C39.9134 102.236 23.4434 100.356 8.39335 90.1857ZM8.29335 42.6857C8.29335 46.6157 7.92334 50.6957 8.43334 54.6657C8.74334 57.0657 9.93334 59.7557 11.5833 61.5157C16.1733 66.4157 22.4933 68.3757 28.7933 69.9457C45.7533 74.1657 62.9133 74.7257 79.9733 70.9757C86.6233 69.5157 93.1333 66.8657 99.2833 63.8857C101.893 62.6157 104.563 59.3357 105.163 56.5357C106.133 51.9957 105.423 47.0957 105.423 42.7357C72.9233 57.1757 40.9333 57.1557 8.29335 42.6857ZM105.403 65.7357C90.4333 75.7857 73.9833 77.7757 57.0033 77.7857C39.9433 77.7957 23.4133 75.7957 8.37335 65.7657C8.37335 69.7157 8.69334 73.1357 8.30334 76.4757C7.55334 82.8557 10.9133 86.6257 15.9333 89.4257C18.2233 90.7057 20.6233 91.8757 23.1133 92.6757C42.7933 98.9957 62.8134 99.2657 82.8034 94.8157C88.9834 93.4357 94.9133 90.4657 100.563 87.4657C102.743 86.3057 104.813 83.2157 105.183 80.7457C105.913 75.9657 105.403 71.0157 105.403 65.7357Z" fill="#F05986"/>
<path d="M119.733 72.7857C120.153 66.5657 119.893 60.2157 121.123 54.1657C123.493 42.4557 131.143 35.2757 142.633 32.2557C153.223 29.4757 163.733 29.7657 173.763 34.3857C184.173 39.1857 189.453 47.8857 190.063 59.0657C190.593 68.7857 190.883 78.6157 190.053 88.2857C189.263 97.5657 184.973 105.836 176.333 110.236C161.583 117.736 146.573 117.916 132.273 108.886C124.173 103.766 120.743 95.6457 120.203 86.3157C119.943 81.8257 120.163 77.3157 120.163 72.8157C120.013 72.8057 119.873 72.7957 119.733 72.7857ZM167.663 73.3057C167.663 70.1257 167.683 66.9457 167.663 63.7657C167.593 54.5957 163.963 51.0057 154.833 51.0657C153.733 51.0757 152.633 51.0757 151.553 51.2157C147.513 51.7457 143.663 54.8357 143.573 58.3557C143.313 67.7657 143.213 77.1857 143.473 86.5957C143.603 91.1457 147.313 94.3157 151.883 94.7157C153.513 94.8557 155.173 94.8157 156.813 94.7857C163.463 94.6557 167.413 90.8457 167.653 84.1657C167.773 80.5557 167.673 76.9257 167.663 73.3057Z" fill="#EF558E"/>
<path d="M304.333 30.1556C310.173 31.4556 316.143 32.3656 321.823 34.1656C328.333 36.2256 332.533 41.1856 335.483 47.2256C336.873 50.0656 336.103 52.1256 333.283 53.3956C329.183 55.2456 325.053 57.0256 320.923 58.8056C318.493 59.8456 316.773 59.0056 315.343 56.8656C311.273 50.7556 302.143 48.3456 295.633 51.8756C294.363 52.5656 292.983 54.7256 293.163 55.9756C293.403 57.5956 294.893 59.8556 296.333 60.3156C300.573 61.6756 305.043 62.3956 309.453 63.1656C317.713 64.6056 325.913 66.0256 332.143 72.4756C337.103 77.6056 338.573 83.8856 338.123 90.6456C337.343 102.376 330.423 109.436 319.763 113.026C307.283 117.236 294.763 117.286 282.523 111.966C276.313 109.276 271.853 104.726 269.433 98.3456C268.163 94.9856 268.893 93.1456 272.223 91.7956C276.083 90.2356 280.023 88.8556 283.963 87.5056C286.153 86.7556 287.873 87.2756 289.393 89.2756C294.593 96.0956 303.093 98.2256 311.093 94.9556C313.353 94.0356 315.073 92.3456 314.513 89.9756C314.133 88.3556 312.573 86.1756 311.133 85.7956C304.793 84.1456 298.283 83.1556 291.873 81.7556C279.613 79.0656 272.133 73.4856 269.853 62.4956C267.673 51.9856 272.503 40.9956 281.883 35.8856C287.753 32.6956 294.863 31.1156 304.133 30.9556C304.213 30.6956 304.273 30.4256 304.333 30.1556Z" fill="#EF558E"/>
<path d="M410.513 30.5256C418.243 30.2756 425.643 31.4356 432.383 35.4456C436.673 37.9956 439.693 41.7156 441.933 46.0956C443.553 49.2556 442.943 51.2356 439.683 52.8056C435.833 54.6656 431.853 56.2756 427.963 58.0456C425.433 59.1956 423.173 58.6656 422.083 56.2356C419.063 49.5456 410.993 49.0556 403.803 50.6256C401.613 51.0956 399.923 52.2256 399.723 54.7156C399.503 57.4456 400.983 59.2756 403.383 59.9156C407.503 61.0056 411.763 61.5456 415.903 62.5656C421.413 63.9256 427.033 65.1156 432.313 67.1356C437.773 69.2256 441.333 73.6456 443.293 79.1956C447.963 92.4456 442.683 105.816 429.623 111.166C414.993 117.166 400.093 117.496 385.843 109.486C381.113 106.836 377.793 102.746 376.133 97.4856C375.013 93.9456 375.703 92.3656 379.133 91.0256C382.913 89.5456 386.743 88.1756 390.583 86.8756C392.893 86.0956 394.713 86.6356 396.283 88.7856C401.183 95.5056 410.263 97.6856 417.973 94.2156C420.033 93.2856 421.353 91.8956 421.343 89.4456C421.333 86.8756 419.733 85.5156 417.633 85.0356C411.343 83.6056 404.963 82.5556 398.663 81.1556C390.043 79.2356 382.093 75.9756 378.363 67.1856C372.633 53.6956 378.353 37.9556 392.863 33.4756C398.563 31.7156 404.543 30.8756 410.393 29.6256C410.413 29.9256 410.463 30.2256 410.513 30.5256Z" fill="#EF558E"/>
<path d="M229.543 32.2157C243.033 32.1857 240.663 31.8557 244.793 42.9457C252.603 63.9257 260.083 85.0357 267.683 106.086C268.093 107.216 268.403 108.386 268.713 109.546C269.323 111.816 267.943 113.186 266.093 113.226C260.423 113.336 254.743 113.026 249.063 112.956C246.543 112.926 245.303 111.506 244.593 109.346C244.563 109.246 244.533 109.136 244.493 109.036C241.423 100.666 241.423 100.666 232.623 100.666C228.453 100.666 224.273 100.716 220.103 100.646C218.093 100.616 216.623 101.066 216.443 103.376C216.433 103.476 216.363 103.576 216.333 103.686C212.353 115.426 212.873 112.726 203.513 113.306C200.423 113.496 197.303 113.126 194.193 113.006C190.673 112.856 189.913 111.816 191.113 108.366C193.383 101.836 195.753 95.3357 198.113 88.8457C203.993 72.6557 209.893 56.4657 215.793 40.2757C218.723 32.2157 218.733 32.2157 227.243 32.2157C228.003 32.2157 228.773 32.2157 229.543 32.2157ZM235.733 82.2057C233.443 72.6657 231.263 63.5557 229.183 54.8457C228.803 57.6157 228.613 60.9757 227.843 64.2057C226.623 69.3057 225.083 74.3357 223.543 79.3457C222.923 81.3757 223.383 82.2457 225.543 82.2157C228.803 82.1757 232.083 82.2057 235.733 82.2057Z" fill="#EF558E"/>
<path d="M368.463 73.0957C368.463 84.0757 368.463 95.0657 368.453 106.046C368.453 107.146 368.423 108.246 368.293 109.326C367.933 112.376 366.533 113.986 363.103 113.766C358.833 113.496 354.533 113.606 350.253 113.726C347.543 113.806 346.123 112.616 345.773 110.026C345.593 108.726 345.383 107.416 345.373 106.106C345.353 84.0257 345.353 61.9557 345.393 39.8757C345.393 38.4657 345.683 37.0557 345.923 35.6557C346.293 33.4757 347.653 32.4757 349.843 32.4857C354.673 32.5057 359.523 32.3157 364.333 32.6257C365.563 32.7057 367.083 34.1257 367.753 35.3257C368.443 36.5657 368.413 38.2957 368.423 39.8057C368.473 50.8957 368.453 61.9957 368.453 73.0857C368.453 73.0957 368.453 73.0957 368.463 73.0957Z" fill="#EF558E"/>
</svg>
