<!--
<svg id="visual" viewBox="0 0 900 600" width="900" height="600" xmlns="http://www.w3.org/2000/svg" xmlns:xlink="http://www.w3.org/1999/xlink" version="1.1"><rect x="0" y="0" width="900" height="600" fill="#001220"></rect><path d="M0 432L21.5 428C43 424 86 416 128.8 412.5C171.7 409 214.3 410 257.2 402.3C300 394.7 343 378.3 385.8 370.2C428.7 362 471.3 362 514.2 369.3C557 376.7 600 391.3 642.8 396.7C685.7 402 728.3 398 771.2 390.2C814 382.3 857 370.7 878.5 364.8L900 359L900 601L878.5 601C857 601 814 601 771.2 601C728.3 601 685.7 601 642.8 601C600 601 557 601 514.2 601C471.3 601 428.7 601 385.8 601C343 601 300 601 257.2 601C214.3 601 171.7 601 128.8 601C86 601 43 601 21.5 601L0 601Z" fill="#022289"></path><path d="M0 453L21.5 454.8C43 456.7 86 460.3 128.8 455.5C171.7 450.7 214.3 437.3 257.2 437C300 436.7 343 449.3 385.8 447C428.7 444.7 471.3 427.3 514.2 423.2C557 419 600 428 642.8 429.5C685.7 431 728.3 425 771.2 432C814 439 857 459 878.5 469L900 479L900 601L878.5 601C857 601 814 601 771.2 601C728.3 601 685.7 601 642.8 601C600 601 557 601 514.2 601C471.3 601 428.7 601 385.8 601C343 601 300 601 257.2 601C214.3 601 171.7 601 128.8 601C86 601 43 601 21.5 601L0 601Z" fill="#521c8a"></path><path d="M0 454L21.5 454.7C43 455.3 86 456.7 128.8 455.3C171.7 454 214.3 450 257.2 450.7C300 451.3 343 456.7 385.8 464C428.7 471.3 471.3 480.7 514.2 477.5C557 474.3 600 458.7 642.8 460.5C685.7 462.3 728.3 481.7 771.2 489.3C814 497 857 493 878.5 491L900 489L900 601L878.5 601C857 601 814 601 771.2 601C728.3 601 685.7 601 642.8 601C600 601 557 601 514.2 601C471.3 601 428.7 601 385.8 601C343 601 300 601 257.2 601C214.3 601 171.7 601 128.8 601C86 601 43 601 21.5 601L0 601Z" fill="#7b1187"></path><path d="M0 483L21.5 489C43 495 86 507 128.8 508.8C171.7 510.7 214.3 502.3 257.2 505.8C300 509.3 343 524.7 385.8 529C428.7 533.3 471.3 526.7 514.2 522.3C557 518 600 516 642.8 515.5C685.7 515 728.3 516 771.2 519.3C814 522.7 857 528.3 878.5 531.2L900 534L900 601L878.5 601C857 601 814 601 771.2 601C728.3 601 685.7 601 642.8 601C600 601 557 601 514.2 601C471.3 601 428.7 601 385.8 601C343 601 300 601 257.2 601C214.3 601 171.7 601 128.8 601C86 601 43 601 21.5 601L0 601Z" fill="#9d0281"></path><path d="M0 552L21.5 550.5C43 549 86 546 128.8 542.3C171.7 538.7 214.3 534.3 257.2 532.5C300 530.7 343 531.3 385.8 531C428.7 530.7 471.3 529.3 514.2 535.2C557 541 600 554 642.8 560.7C685.7 567.3 728.3 567.7 771.2 566C814 564.3 857 560.7 878.5 558.8L900 557L900 601L878.5 601C857 601 814 601 771.2 601C728.3 601 685.7 601 642.8 601C600 601 557 601 514.2 601C471.3 601 428.7 601 385.8 601C343 601 300 601 257.2 601C214.3 601 171.7 601 128.8 601C86 601 43 601 21.5 601L0 601Z" fill="#b90078"></path></svg>
 -->


<svg id="visual" viewBox="0 0 900 600" width="900" height="600" xmlns="http://www.w3.org/2000/svg" xmlns:xlink="http://www.w3.org/1999/xlink" version="1.1"><rect x="0" y="0" width="900" height="600" fill="#001220"></rect><path d="M0 365L113 347L225 338L338 330L450 365L563 373L675 335L788 379L900 366L900 601L788 601L675 601L563 601L450 601L338 601L225 601L113 601L0 601Z" fill="#ff82d3"></path><path d="M0 392L113 377L225 367L338 404L450 393L563 361L675 362L788 389L900 386L900 601L788 601L675 601L563 601L450 601L338 601L225 601L113 601L0 601Z" fill="#e370ca"></path><path d="M0 392L113 396L225 413L338 399L450 392L563 432L675 421L788 437L900 392L900 601L788 601L675 601L563 601L450 601L338 601L225 601L113 601L0 601Z" fill="#c660c0"></path><path d="M0 443L113 469L225 436L338 425L450 423L563 463L675 441L788 456L900 461L900 601L788 601L675 601L563 601L450 601L338 601L225 601L113 601L0 601Z" fill="#a851b6"></path><path d="M0 474L113 493L225 459L338 454L450 481L563 482L675 460L788 488L900 463L900 601L788 601L675 601L563 601L450 601L338 601L225 601L113 601L0 601Z" fill="#8943ac"></path><path d="M0 486L113 502L225 493L338 500L450 492L563 492L675 500L788 486L900 525L900 601L788 601L675 601L563 601L450 601L338 601L225 601L113 601L0 601Z" fill="#6937a1"></path><path d="M0 543L113 535L225 546L338 544L450 517L563 538L675 533L788 542L900 537L900 601L788 601L675 601L563 601L450 601L338 601L225 601L113 601L0 601Z" fill="#442b95"></path><path d="M0 562L113 555L225 565L338 580L450 576L563 563L675 581L788 564L900 566L900 601L788 601L675 601L563 601L450 601L338 601L225 601L113 601L0 601Z" fill="#022289"></path></svg>