<svg width="115" height="131" viewBox="0 0 115 131" fill="none" xmlns="http://www.w3.org/2000/svg">
<path d="M0.0733442 65.3857C0.0733442 52.5357 0.193347 39.6957 0.0133466 26.8457C-0.0566534 21.3257 2.12335 17.0657 6.09335 13.5857C13.7933 6.82567 23.3033 4.27568 33.0133 2.13568C44.1833 -0.324324 55.5333 -0.264318 66.7833 0.375682C80.0733 1.13568 93.2034 3.38567 104.613 11.1157C110.803 15.3157 114.103 20.8257 114.013 28.7757C113.713 53.0357 113.693 77.3057 114.063 101.566C114.203 110.496 110.503 116.806 103.103 120.606C96.8333 123.826 90.0933 126.696 83.2333 128.066C61.8733 132.326 40.5033 132.266 19.6233 125.036C13.4433 122.896 7.48334 119.996 3.66334 114.506C1.77334 111.786 0.313338 108.166 0.223338 104.906C-0.156662 91.7457 0.0633497 78.5557 0.0633497 65.3857C0.0633497 65.3857 0.0633442 65.3857 0.0733442 65.3857ZM50.0633 8.07568C41.0033 8.74568 27.7633 11.3557 19.5733 15.1057C16.9033 16.3257 14.2933 17.8757 12.0533 19.7557C7.09334 23.9157 6.82334 29.1457 11.8033 33.1857C15.2233 35.9557 19.2933 38.3157 23.4533 39.7157C41.6433 45.8457 60.2734 46.1857 79.0234 42.7957C86.9434 41.3657 94.7333 39.3157 101.183 34.1457C107.223 29.2957 107.003 23.5357 100.803 18.8557C94.3934 14.0157 86.8433 11.7757 79.1433 10.6757C69.5233 9.30568 59.7633 8.89568 50.0633 8.07568ZM8.39335 90.1857C8.39335 94.4857 8.64334 98.2957 8.33334 102.066C7.93334 106.996 10.0833 110.626 14.1033 112.666C19.3433 115.326 24.8033 117.886 30.4633 119.296C47.1033 123.416 63.9633 123.196 80.7333 120.036C87.7433 118.716 94.7033 116.706 100.423 112.176C102.463 110.556 104.793 108.106 105.123 105.776C105.843 100.806 105.343 95.6557 105.343 90.2657C90.3733 100.376 73.8934 102.236 56.8934 102.236C39.9134 102.236 23.4434 100.356 8.39335 90.1857ZM8.29335 42.6857C8.29335 46.6157 7.92334 50.6957 8.43334 54.6657C8.74334 57.0657 9.93334 59.7557 11.5833 61.5157C16.1733 66.4157 22.4933 68.3757 28.7933 69.9457C45.7533 74.1657 62.9133 74.7257 79.9733 70.9757C86.6233 69.5157 93.1333 66.8657 99.2833 63.8857C101.893 62.6157 104.563 59.3357 105.163 56.5357C106.133 51.9957 105.423 47.0957 105.423 42.7357C72.9233 57.1757 40.9333 57.1557 8.29335 42.6857ZM105.403 65.7357C90.4333 75.7857 73.9833 77.7757 57.0033 77.7857C39.9433 77.7957 23.4133 75.7957 8.37335 65.7657C8.37335 69.7157 8.69334 73.1357 8.30334 76.4757C7.55334 82.8557 10.9133 86.6257 15.9333 89.4257C18.2233 90.7057 20.6233 91.8757 23.1133 92.6757C42.7933 98.9957 62.8134 99.2657 82.8034 94.8157C88.9834 93.4357 94.9133 90.4657 100.563 87.4657C102.743 86.3057 104.813 83.2157 105.183 80.7457C105.913 75.9657 105.403 71.0157 105.403 65.7357Z" fill="#F05986"/>
</svg>
