<svg width="1796" height="1074" viewBox="0 0 1796 1074" fill="none" xmlns="http://www.w3.org/2000/svg">
<g clip-path="url(#clip0_326_6153)">
<path d="M1858 -3H-62V1077H1858V-3Z" fill="#021D4B"/>
<path d="M1858 969C1795.8 873.6 1733.4 778.2 1651.4 767.8C1569.4 757.4 1467.8 832.2 1373 837C1278.2 841.8 1190.4 776.8 1170.6 684.4C1151 591.8 1199.4 472 1160 400C1120.4 328 993 304.2 932.6 245C872.4 185.8 879.2 91.4 886 -3H1858V969Z" fill="#09285F"/>
<path d="M1858 774.6C1808.2 698.2 1758.4 622 1692.8 613.6C1627.2 605.4 1545.8 665.2 1470 669C1394.2 673 1324 620.8 1308.2 546.8C1292.4 472.8 1331.2 377 1299.6 319.4C1268 261.8 1166 242.6 1117.8 195.4C1069.4 148 1075 72.6 1080.4 -3H1858V774.6Z" fill="#1A418A"/>
<path d="M1858 580.2C1820.6 523 1783.2 465.6 1734 459.4C1684.8 453.2 1623.8 498.2 1567 501C1510.2 504 1457.4 464.8 1445.6 409.4C1433.8 353.8 1462.8 282 1439.2 238.8C1415.4 195.6 1339 181.2 1302.8 145.8C1266.6 110.2 1270.6 53.6 1274.8 -3H1858V580.2Z" fill="#2A5BB7"/>
<path d="M1858 385.8C1833 347.6 1808.2 309.4 1775.4 305.4C1742.6 301.2 1702 331 1664 333C1626 335 1591 309 1583 272C1575.2 235 1594.6 187 1578.8 158.2C1563 129.4 1512 119.8 1487.8 96.2C1463.8 72.6 1466.4 34.8 1469.2 -3H1858V385.8Z" fill="#3977E6"/>
<path d="M1858 191.4C1845.6 172.4 1833 153.2 1816.6 151.2C1800.2 149 1780 164 1761 165C1742 166 1724.4 153 1720.6 134.4C1716.6 116 1726.2 92 1718.4 77.6C1710.4 63.2 1685 58.4 1673 46.6C1660.8 34.8 1662.2 15.8 1663.6 -3H1858V191.4Z" fill="#4085FF"/>
<path d="M-62 105C22.4 110 106.8 115 189.6 138.2C272.4 161.2 353.6 202.2 404 269.8C454.4 337.4 474.4 431.6 517.8 497.2C561.4 562.8 628.4 599.8 669 655C709.4 710.2 723.2 783.6 759 857C794.8 930.4 852.4 1003.6 910 1077H-62V105Z" fill="#09285F"/>
<path d="M-62 299.4C5.6 303.4 73 307.4 139.2 325.8C205.4 344.4 270.4 377.2 310.8 431.2C351.2 485.4 367 560.6 401.8 613.2C436.6 665.6 490.4 695.2 522.8 739.4C555.2 783.6 566.2 842.4 594.8 901C623.4 959.6 669.6 1018.4 715.6 1077H-62V299.4Z" fill="#1A418A"/>
<path d="M-62 493.8C-11.4 496.8 39.2 499.8 89 513.6C138.6 527.6 187.4 552.2 217.6 592.8C247.8 633.2 259.8 689.8 285.8 729.2C312 768.4 352.2 790.6 376.6 823.8C400.8 857 409.2 901 430.6 945C452 989 486.6 1033 521.2 1077H-62V493.8Z" fill="#2A5BB7"/>
<path d="M-62 688.2C-28.2 690.2 5.6 692.2 38.6 701.4C71.8 710.6 104.2 727.2 124.4 754.2C144.6 781.2 152.6 818.8 170 845C187.4 871.2 214.2 886.2 230.4 908.2C246.6 930.2 252.2 959.6 266.4 989C280.8 1018.4 303.8 1047.6 326.8 1077H-62V688.2Z" fill="#3977E6"/>
<path d="M-62 882.6C-45.2 883.6 -28.2 884.6 -11.6 889.2C4.8 893.8 21.2 902 31.2 915.6C41.2 929 45.2 948 54 961C62.6 974.2 76 981.6 84.2 992.6C92.2 1003.6 95 1018.4 102.2 1033C109.4 1047.6 120.8 1062.4 132.4 1077H-62V882.6Z" fill="#4085FF"/>
</g>
<defs>
<clipPath id="clip0_326_6153">
<rect width="1796" height="1074" fill="white"/>
</clipPath>
</defs>
</svg>
