<svg width="326" height="331" viewBox="0 0 326 331" fill="none" xmlns="http://www.w3.org/2000/svg">
<path d="M69.1209 107.862C69.1209 86.6646 69.3187 65.4833 69.022 44.2855C68.9066 35.1795 72.4996 28.1521 79.0428 22.4114C91.7335 11.2599 107.407 7.0533 123.411 3.52308C141.821 -0.535015 160.527 -0.436028 179.069 0.619737C200.973 1.87346 222.613 5.58512 241.419 18.3368C251.621 25.2652 257.06 34.3547 256.911 47.4693C256.417 87.4894 256.384 127.526 256.994 167.546C257.224 182.277 251.126 192.686 238.93 198.955C228.596 204.267 217.488 209.001 206.181 211.261C170.977 218.289 135.756 218.19 101.342 206.263C91.1567 202.733 81.3337 197.949 75.0377 188.892C71.9227 184.405 69.5164 178.434 69.3681 173.056C68.7418 151.347 69.1044 129.588 69.1044 107.862C69.1044 107.862 69.1044 107.862 69.1209 107.862ZM151.512 13.3219C136.58 14.4272 114.758 18.7327 101.26 24.9188C96.8593 26.9314 92.5576 29.4883 88.8657 32.5896C80.6909 39.4521 80.2459 48.0797 88.4537 54.7442C94.0904 59.3137 100.798 63.2068 107.655 65.5163C137.635 75.6285 168.34 76.1894 199.242 70.5972C212.296 68.2382 225.135 64.8564 235.765 56.3278C245.72 48.3271 245.358 38.8252 235.139 31.1049C224.575 23.1207 212.131 19.4256 199.44 17.611C183.585 15.351 167.499 14.6746 151.512 13.3219ZM82.8335 148.773C82.8335 155.867 83.2455 162.152 82.7346 168.371C82.0753 176.504 85.6189 182.492 92.2445 185.857C100.881 190.245 109.88 194.468 119.208 196.794C146.633 203.591 174.421 203.228 202.061 198.015C213.614 195.837 225.086 192.521 234.513 185.049C237.875 182.376 241.715 178.335 242.259 174.491C243.446 166.292 242.622 157.797 242.622 148.905C217.949 165.583 190.787 168.651 162.769 168.651C134.783 168.651 107.638 165.55 82.8335 148.773ZM82.6687 70.4157C82.6687 76.8988 82.0589 83.6293 82.8994 90.1783C83.4104 94.1374 85.3717 98.5749 88.0911 101.478C95.6561 109.561 106.072 112.795 116.456 115.385C144.408 122.346 172.691 123.27 200.808 117.084C211.768 114.675 222.498 110.304 232.634 105.388C236.936 103.293 241.336 97.8821 242.325 93.2631C243.924 85.7738 242.754 77.6906 242.754 70.4982C189.189 94.3189 136.464 94.2859 82.6687 70.4157ZM242.721 108.44C218.048 125.019 190.936 128.301 162.95 128.318C134.833 128.334 107.589 125.035 82.8005 108.489C82.8005 115.005 83.3279 120.647 82.6852 126.157C81.4491 136.681 86.9868 142.901 95.2606 147.52C99.0348 149.631 102.99 151.561 107.094 152.881C139.53 163.307 172.526 163.752 205.473 156.411C215.658 154.135 225.432 149.235 234.744 144.286C238.337 142.373 241.748 137.275 242.358 133.201C243.561 125.315 242.721 117.15 242.721 108.44Z" fill="#F05986"/>
<path d="M0.733154 286.786C1.15315 280.566 0.893138 274.216 2.12314 268.166C4.49314 256.456 12.1431 249.276 23.6331 246.256C34.2231 243.476 44.7332 243.766 54.7632 248.386C65.1732 253.186 70.4531 261.886 71.0631 273.066C71.5931 282.786 71.8832 292.616 71.0532 302.286C70.2632 311.566 65.9732 319.836 57.3332 324.236C42.5832 331.736 27.5732 331.916 13.2732 322.886C5.17316 317.766 1.74316 309.646 1.20316 300.316C0.943156 295.826 1.16315 291.316 1.16315 286.816C1.01315 286.806 0.873154 286.796 0.733154 286.786ZM48.6631 287.306C48.6631 284.126 48.6831 280.946 48.6631 277.766C48.5931 268.596 44.9632 265.006 35.8332 265.066C34.7332 265.076 33.6332 265.076 32.5532 265.216C28.5132 265.746 24.6632 268.836 24.5732 272.356C24.3132 281.766 24.2131 291.186 24.4731 300.596C24.6031 305.146 28.3131 308.316 32.8831 308.716C34.5131 308.856 36.1731 308.816 37.8131 308.786C44.4631 308.656 48.4131 304.846 48.6531 298.166C48.7731 294.556 48.6731 290.926 48.6631 287.306Z" fill="#EF558E"/>
<path d="M185.333 244.156C191.173 245.456 197.143 246.366 202.823 248.166C209.333 250.226 213.533 255.186 216.483 261.226C217.873 264.066 217.103 266.126 214.283 267.396C210.183 269.246 206.053 271.026 201.923 272.806C199.493 273.846 197.773 273.006 196.343 270.866C192.273 264.756 183.143 262.346 176.633 265.876C175.363 266.566 173.983 268.726 174.163 269.976C174.403 271.596 175.893 273.856 177.333 274.316C181.573 275.676 186.043 276.396 190.453 277.166C198.713 278.606 206.913 280.026 213.143 286.476C218.103 291.606 219.573 297.886 219.123 304.646C218.343 316.376 211.423 323.436 200.763 327.026C188.283 331.236 175.763 331.286 163.523 325.966C157.313 323.276 152.853 318.726 150.433 312.346C149.163 308.986 149.893 307.146 153.223 305.796C157.083 304.236 161.023 302.856 164.963 301.506C167.153 300.756 168.873 301.276 170.393 303.276C175.593 310.096 184.093 312.226 192.093 308.956C194.353 308.036 196.073 306.346 195.513 303.976C195.133 302.356 193.573 300.176 192.133 299.796C185.793 298.146 179.283 297.156 172.873 295.756C160.613 293.066 153.133 287.486 150.853 276.496C148.673 265.986 153.503 254.996 162.883 249.886C168.753 246.696 175.863 245.116 185.133 244.956C185.213 244.696 185.273 244.426 185.333 244.156Z" fill="#EF558E"/>
<path d="M291.513 244.526C299.243 244.276 306.643 245.436 313.383 249.446C317.673 251.996 320.693 255.716 322.933 260.096C324.553 263.256 323.943 265.236 320.683 266.806C316.833 268.666 312.853 270.276 308.963 272.046C306.433 273.196 304.173 272.666 303.083 270.236C300.063 263.546 291.993 263.056 284.803 264.626C282.613 265.096 280.923 266.226 280.723 268.716C280.503 271.446 281.983 273.276 284.383 273.916C288.503 275.006 292.763 275.546 296.903 276.566C302.413 277.926 308.033 279.116 313.313 281.136C318.773 283.226 322.333 287.646 324.293 293.196C328.963 306.446 323.683 319.816 310.623 325.166C295.993 331.166 281.093 331.496 266.843 323.486C262.113 320.836 258.793 316.746 257.133 311.486C256.013 307.946 256.703 306.366 260.133 305.026C263.913 303.546 267.743 302.176 271.583 300.876C273.893 300.096 275.713 300.636 277.283 302.786C282.183 309.506 291.263 311.686 298.973 308.216C301.033 307.286 302.353 305.896 302.343 303.446C302.333 300.876 300.733 299.516 298.633 299.036C292.343 297.606 285.963 296.556 279.663 295.156C271.043 293.236 263.093 289.976 259.363 281.186C253.633 267.696 259.353 251.956 273.863 247.476C279.563 245.716 285.543 244.876 291.393 243.626C291.413 243.926 291.463 244.226 291.513 244.526Z" fill="#EF558E"/>
<path d="M110.543 246.216C124.033 246.186 121.663 245.856 125.793 256.946C133.603 277.926 141.083 299.036 148.683 320.086C149.093 321.216 149.403 322.386 149.713 323.546C150.323 325.816 148.943 327.186 147.093 327.226C141.423 327.336 135.743 327.026 130.063 326.956C127.543 326.926 126.303 325.506 125.593 323.346C125.563 323.246 125.533 323.136 125.493 323.036C122.423 314.666 122.423 314.666 113.623 314.666C109.453 314.666 105.273 314.716 101.103 314.646C99.0932 314.616 97.6232 315.066 97.4432 317.376C97.4332 317.476 97.3632 317.576 97.3332 317.686C93.3532 329.426 93.8732 326.726 84.5132 327.306C81.4232 327.496 78.3032 327.126 75.1932 327.006C71.6732 326.856 70.9132 325.816 72.1132 322.366C74.3832 315.836 76.7532 309.336 79.1132 302.846C84.9932 286.656 90.8932 270.466 96.7932 254.276C99.7232 246.216 99.7332 246.216 108.243 246.216C109.003 246.216 109.773 246.216 110.543 246.216ZM116.733 296.206C114.443 286.666 112.263 277.556 110.183 268.846C109.803 271.616 109.613 274.976 108.843 278.206C107.623 283.306 106.083 288.336 104.543 293.346C103.923 295.376 104.383 296.246 106.543 296.216C109.803 296.176 113.083 296.206 116.733 296.206Z" fill="#EF558E"/>
<path d="M249.463 287.096C249.463 298.076 249.463 309.066 249.453 320.046C249.453 321.146 249.423 322.246 249.293 323.326C248.933 326.376 247.533 327.986 244.103 327.766C239.833 327.496 235.533 327.606 231.253 327.726C228.543 327.806 227.123 326.616 226.773 324.026C226.593 322.726 226.383 321.416 226.373 320.106C226.353 298.026 226.353 275.956 226.393 253.876C226.393 252.466 226.683 251.056 226.923 249.656C227.293 247.476 228.653 246.476 230.843 246.486C235.673 246.506 240.523 246.316 245.333 246.626C246.563 246.706 248.083 248.126 248.753 249.326C249.443 250.566 249.413 252.296 249.423 253.806C249.473 264.896 249.453 275.996 249.453 287.086C249.453 287.096 249.453 287.096 249.463 287.096Z" fill="#EF558E"/>
</svg>
